<svg width="70" height="62" viewBox="0 0 70 62" fill="none" xmlns="http://www.w3.org/2000/svg">
<path d="M34.875 15.5C39.1552 15.5 42.625 12.0302 42.625 7.75C42.625 3.46979 39.1552 0 34.875 0C30.5948 0 27.125 3.46979 27.125 7.75C27.125 12.0302 30.5948 15.5 34.875 15.5Z" fill="#F4A261"/>
<path d="M69.75 46.5V38.75C61.07 38.75 53.63 35.03 48.05 28.365L42.8575 22.165C41.385 20.3825 39.215 19.375 36.9287 19.375H32.86C30.5737 19.375 28.4037 20.3825 26.9312 22.165L21.7387 28.365C16.12 35.03 8.68 38.75 0 38.75V46.5C10.7338 46.5 20.1112 41.9662 27.125 33.9062V42.625L12.09 48.6312C9.49375 49.6775 7.75 52.235 7.75 55.0637C7.75 58.9 10.85 62 14.6862 62H23.25V60.0625C23.25 54.715 27.59 50.375 32.9375 50.375H44.5625C45.6475 50.375 46.5 51.2275 46.5 52.3125C46.5 53.3975 45.6475 54.25 44.5625 54.25H32.9375C29.7213 54.25 27.125 56.8462 27.125 60.0625V62H55.0637C58.9 62 62 58.9 62 55.0637C62 52.235 60.2562 49.6775 57.66 48.6312L42.625 42.625V33.9062C49.6387 41.9662 59.0163 46.5 69.75 46.5Z" fill="#F4A261"/>
</svg>
