<svg width="102" height="102" viewBox="0 0 102 102" fill="none" xmlns="http://www.w3.org/2000/svg">
<path d="M50.8621 0C37.3772 0.0150777 24.449 5.37859 14.9138 14.9138C5.37859 24.449 0.0150777 37.3772 0 50.8621C0.0225937 64.3446 5.38852 77.2684 14.9221 86.802C24.4557 96.3356 37.3795 101.702 50.8621 101.724C64.3515 101.724 77.2885 96.3655 86.827 86.827C96.3655 77.2885 101.724 64.3515 101.724 50.8621C101.724 37.3726 96.3655 24.4356 86.827 14.8972C77.2885 5.35867 64.3515 0 50.8621 0ZM81.7984 80.2115C78.9419 74.4499 74.5321 69.6012 69.0665 66.2125C63.6009 62.8238 57.2971 61.0299 50.8662 61.0333C44.4353 61.0367 38.1334 62.8372 32.6714 66.2316C27.2094 69.6261 22.8046 74.4794 19.9542 80.2441C12.349 72.3564 8.11124 61.819 8.13793 50.8621C8.13793 39.5309 12.6392 28.6639 20.6515 20.6515C28.6639 12.6392 39.5309 8.13793 50.8621 8.13793C62.1932 8.13793 73.0603 12.6392 81.0726 20.6515C89.0849 28.6639 93.5862 39.5309 93.5862 50.8621C93.6117 61.8037 89.385 72.3272 81.7984 80.2115ZM50.8621 20.3448C47.2406 20.3448 43.7005 21.4187 40.6894 23.4307C37.6783 25.4426 35.3314 28.3023 33.9455 31.6481C32.5596 34.9939 32.197 38.6755 32.9035 42.2273C33.6101 45.7792 35.354 49.0418 37.9147 51.6025C40.4754 54.1633 43.738 55.9072 47.2899 56.6137C50.8418 57.3202 54.5234 56.9576 57.8691 55.5717C61.2149 54.1859 64.0746 51.839 66.0866 48.8279C68.0985 45.8167 69.1724 42.2766 69.1724 38.6552C69.1724 36.2506 68.6988 33.8696 67.7786 31.6481C66.8584 29.4266 65.5097 27.4081 63.8094 25.7078C62.1092 24.0075 60.0906 22.6588 57.8691 21.7386C55.6476 20.8184 53.2666 20.3448 50.8621 20.3448Z" fill="#F4A261"/>
</svg>
